<svg data-v-0dd9719b="" version="1.0" xmlns="http://www.w3.org/2000/svg" xmlns:xlink="http://www.w3.org/1999/xlink" width="100%" height="100%" viewBox="0 0 340.000000 250.000000" preserveAspectRatio="xMidYMid meet" color-interpolation-filters="sRGB" style="margin: auto;"> <rect data-v-0dd9719b="" x="0" y="0" width="100%" height="100%" fill="#fff" fill-opacity="1" class="background"></rect> <rect data-v-0dd9719b="" x="0" y="0" width="100%" height="100%" fill="url(#watermark)" fill-opacity="1" class="watermarklayer"></rect> <g data-v-0dd9719b="" fill="#0b0c0c" class="icon-text-wrapper icon-svg-group iconsvg" transform="translate(88.64500427246094,98.98836326631609)"><g class="iconsvg-imagesvg" transform="translate(0,0)"><g><rect fill="#0b0c0c" fill-opacity="0" stroke-width="2" x="0" y="0" width="60" height="52.02327174355995" class="image-rect"></rect> <svg x="0" y="0" width="60" height="52.02327174355995" filtersec="colorsb4376642" class="image-svg-svg primary" style="overflow: visible;"><svg xmlns="http://www.w3.org/2000/svg" viewBox="0.0025984924286603928 0.0025984924286603928 86.00160217285156 74.56830596923828"><g transform="matrix(.69 0 0 .69 15.5 15.5)"><title>artifact</title><g fill="#0B0C0C"><path d="M18.35 48.21l-40.81-70.67h37.85L31.51 35.2zM24.56-6.94l-4-15.52h81.62L83.84 9.18zM35.5 30.61L26.77-1.03l31.79 8.28zM64.48 8.58L21.3 52.5l18.93 33.11 41.4-72.44z"></path></g></g></svg></svg> <!----></g></g> <g transform="translate(67,2.206636428833008)"><g data-gra="path-name" fill-rule="" class="tp-name iconsvg-namesvg"><g transform="scale(1)"><g><path d="M38.48-9.62L38.48-9.62Q39-9.62 39.42-9.2L39.42-9.2 41.89-6.5Q39.03-3.19 34.95-1.33 30.88 0.52 25.12 0.52L25.12 0.52Q20.09 0.52 15.99-1.22 11.89-2.96 9-6.09 6.11-9.23 4.52-13.62 2.93-18 2.93-23.27L2.93-23.27Q2.93-28.54 4.63-32.92 6.34-37.31 9.43-40.46 12.51-43.62 16.82-45.35 21.13-47.09 26.32-47.09L26.32-47.09Q31.46-47.09 35.18-45.5 38.9-43.91 41.8-41.18L41.8-41.18 39.75-38.29Q39.52-37.96 39.23-37.75 38.94-37.54 38.38-37.54L38.38-37.54Q37.96-37.54 37.49-37.85 37.02-38.16 36.37-38.61 35.72-39.07 34.84-39.59 33.96-40.11 32.76-40.56 31.56-41.02 29.96-41.32 28.37-41.63 26.29-41.63L26.29-41.63Q22.55-41.63 19.45-40.35 16.35-39.07 14.11-36.69 11.86-34.32 10.61-30.91 9.36-27.5 9.36-23.27L9.36-23.27Q9.36-18.91 10.61-15.5 11.86-12.09 14.02-9.73 16.19-7.38 19.14-6.14 22.1-4.91 25.51-4.91L25.51-4.91Q27.59-4.91 29.25-5.15 30.91-5.4 32.32-5.92 33.73-6.44 34.95-7.23 36.17-8.03 37.41-9.13L37.41-9.13Q37.96-9.62 38.48-9.62ZM73.09-16.84L73.09-16.84Q73.55-16.05 73.89-15.19 74.23-14.33 74.56-13.46L74.56-13.46Q74.88-14.37 75.24-15.19 75.59-16.02 76.05-16.87L76.05-16.87 91.81-45.5Q92.23-46.25 92.69-46.41 93.15-46.57 93.99-46.57L93.99-46.57 98.64-46.57 98.64 0 93.11 0 93.11-34.22Q93.11-34.91 93.15-35.69 93.18-36.47 93.24-37.28L93.24-37.28 77.28-8.16Q76.47-6.7 75.01-6.7L75.01-6.7 74.1-6.7Q72.64-6.7 71.83-8.16L71.83-8.16 55.51-37.38Q55.61-36.53 55.66-35.72 55.7-34.91 55.7-34.22L55.7-34.22 55.7 0 50.18 0 50.18-46.57 54.83-46.57Q55.67-46.57 56.13-46.41 56.58-46.25 57-45.5L57-45.5 73.09-16.84Z" transform="translate(-2.930000066757202, 47.09000015258789)"></path></g> <!----> <!----> <!----> <!----> <!----> <!----> <!----></g></g> <!----></g></g><defs v-gra="od"></defs></svg>